<?xml version="1.0" standalone="no"?>
<!DOCTYPE svg PUBLIC "-//W3C//DTD SVG 1.1//EN" "http://www.w3.org/Graphics/SVG/1.1/DTD/svg11.dtd" >
<svg xmlns="http://www.w3.org/2000/svg">
<metadata>
Created by FontForge 20120731 at Wed Nov 16 10:23:57 2016
 By admin
</metadata>
<defs>
<font id="iconfont" horiz-adv-x="1024" >
  <font-face 
    font-family="iconfont"
    font-weight="500"
    font-stretch="normal"
    units-per-em="1024"
    panose-1="2 0 6 3 0 0 0 0 0 0"
    ascent="896"
    descent="-128"
    x-height="792"
    bbox="0 -320 1370 896"
    underline-thickness="0"
    underline-position="0"
    unicode-range="U+0078-E8D1"
  />
<missing-glyph 
 />
    <glyph glyph-name=".notdef" 
 />
    <glyph glyph-name=".notdef" 
 />
    <glyph glyph-name=".null" horiz-adv-x="0" 
 />
    <glyph glyph-name="nonmarkingreturn" horiz-adv-x="341" 
 />
    <glyph glyph-name="x" unicode="x" horiz-adv-x="1001" 
d="M281 543q-27 -1 -53 -1h-83q-18 0 -36.5 -6t-32.5 -18.5t-23 -32t-9 -45.5v-76h912v41q0 16 -0.5 30t-0.5 18q0 13 -5 29t-17 29.5t-31.5 22.5t-49.5 9h-133v-97h-438v97zM955 310v-52q0 -23 0.5 -52t0.5 -58t-10.5 -47.5t-26 -30t-33 -16t-31.5 -4.5q-14 -1 -29.5 -0.5
t-29.5 0.5h-32l-45 128h-439l-44 -128h-29h-34q-20 0 -45 1q-25 0 -41 9.5t-25.5 23t-13.5 29.5t-4 30v167h911zM163 247q-12 0 -21 -8.5t-9 -21.5t9 -21.5t21 -8.5q13 0 22 8.5t9 21.5t-9 21.5t-22 8.5zM316 123q-8 -26 -14 -48q-5 -19 -10.5 -37t-7.5 -25t-3 -15t1 -14.5
t9.5 -10.5t21.5 -4h37h67h81h80h64h36q23 0 34 12t2 38q-5 13 -9.5 30.5t-9.5 34.5q-5 19 -11 39h-368zM336 498v228q0 11 2.5 23t10 21.5t20.5 15.5t34 6h188q31 0 51.5 -14.5t20.5 -52.5v-227h-327z" />
    <glyph glyph-name="sousuo" unicode="&#x343e;" horiz-adv-x="1000" 
d="M936 -24l-198 203q-1 1 -3.5 2.5t-3.5 2.5q66 93 66 207q0 98 -48 181t-131 131t-180.5 48t-180.5 -48t-131 -131t-48 -180.5t48 -180.5t131 -131t181 -48q121 0 218 74q0 -1 1 -2.5t2 -1.5l198 -204q17 -16 40 -16q22 0 39 15q16 16 16 39t-16 40zM133 391.5
q0 125.5 89.5 215t215.5 89.5t215 -89.5t89 -215t-89 -215t-215 -89.5t-215.5 89.5t-89.5 215z" />
    <glyph glyph-name="chugui1" unicode="&#xe613;" 
d="M841 681h-658q-17 0 -29.5 -13t-12.5 -31v-681q0 -19 12.5 -31.5t29.5 -12.5h60v-30h61v30h416v-30h62v30h59q18 0 30.5 12.5t12.5 31.5v681q0 18 -12.5 31t-30.5 13zM845 -48h-665v201h665v-201zM845 196h-665v201h665v-201zM845 440h-665v200h665v-200zM717 537h62
q6 0 11 4.5t5 10.5v20q0 7 -5 11.5t-11 4.5h-62q-6 0 -11 -4.5t-5 -11.5v-20q0 -6 5 -10.5t11 -4.5zM717 291h62q6 0 11 4.5t5 11.5v19q0 7 -5 11.5t-11 4.5h-62q-6 0 -11 -4.5t-5 -11.5v-19q0 -7 5 -11.5t11 -4.5zM717 50h62q6 0 11 5t5 11v20q0 6 -5 10.5t-11 4.5h-62
q-6 0 -11 -4.5t-5 -10.5v-20q0 -6 5 -11t11 -5z" />
    <glyph glyph-name="shijian" unicode="&#xe6f0;" 
d="M517 769q-92 0 -175.5 -34.5t-148.5 -99.5t-99.5 -148.5t-34.5 -175.5t34.5 -176t99.5 -149t148.5 -99.5t175.5 -34.5t176 34.5t149 99.5t99.5 149t34.5 176t-34.5 175.5t-99.5 148.5t-149 99.5t-176 34.5zM801 27q-57 -57 -130 -87.5t-153.5 -30.5t-154 30.5t-130 87.5
t-87 130t-30.5 153.5t30.5 154t87 130t130 87t154 30.5t153.5 -30.5t130 -87t87.5 -130t30.5 -154t-30.5 -153.5t-87.5 -130zM525 266v296q0 12 -8.5 20.5t-20.5 8.5t-20.5 -8.5t-8.5 -20.5v-315q0 -19 18 -27zM747 247q0 -14 -9.5 -23t-22.5 -9h-214q-13 0 -22.5 9t-9.5 23
v0q0 13 9.5 22.5t22.5 9.5h214q13 0 22.5 -9.5t9.5 -22.5v0z" />
    <glyph glyph-name="quanping" unicode="&#xe638;" 
d="M909 -52q5 -39 -35 -37l-209 24q-25 2 -32 13.5t8 25.5q9 8 22.5 22.5t23.5 23.5q9 10 5.5 18.5t-13.5 19.5q-24 22 -43.5 40.5t-43.5 42.5q-5 5 -10 10.5t-7.5 12.5t-1 15t11.5 17q5 5 8.5 9t6.5 7t7 6.5t10 10.5q17 16 31.5 13.5t31.5 -19t35 -33.5t40 -39
q16 -14 27.5 -20t22.5 5q8 7 19.5 17.5t19.5 18.5q15 14 26.5 11t13.5 -25zM118 651q-3 21 5 29.5t29 6.5l209 -23q26 -2 32 -13.5t-8 -25.5q-9 -8 -21 -21.5t-22 -22.5q-10 -10 -6.5 -18.5t14.5 -18.5q11 -12 21 -20.5t19 -17.5l19 -19l22 -21q5 -5 9.5 -11.5t6.5 -14
t-0.5 -16t-10.5 -16.5l-9 -9q-4 -3 -7 -6.5t-7 -6.5l-9 -10q-17 -17 -29.5 -13t-29.5 21t-32.5 31.5t-37.5 35.5q-15 15 -27 21t-23 -5q-8 -8 -21.5 -20t-22.5 -21q-14 -14 -25 -10.5t-14 25.5zM872 688q22 3 30.5 -5t7.5 -29l-24 -204q-3 -24 -14.5 -31t-25.5 8
q-9 9 -22.5 21t-22.5 21q-10 9 -18.5 6t-19.5 -14q-23 -22 -40.5 -40.5t-41.5 -41.5q-5 -5 -12 -9.5t-14.5 -6.5t-16 0.5t-17.5 11.5l-8.5 8.5t-7 6.5t-7.5 6.5t-10 10.5q-17 16 -13.5 28.5t21.5 29.5l32 33q16 17 38 38q17 15 22.5 26.5t-5.5 21.5q-8 8 -20 21t-20 21
q-15 14 -11.5 25t25.5 13zM152 -84q-22 -1 -30.5 7t-7.5 27l24 205q3 25 14.5 31t25.5 -8q9 -8 23.5 -21.5t24.5 -22.5q10 -10 17 -8.5t17 11.5q11 11 21 21.5t20.5 20.5t21 20.5l22.5 22.5q5 5 11 10t13 7.5t15 0.5t18 -11q5 -5 9 -8.5t7 -6.5l7 -8l10 -9q17 -16 15 -30
t-20 -31l-34 -34t-40 -39q-15 -15 -19 -24.5t7 -20.5l19 -19l19 -19q15 -15 11 -25.5t-26 -13.5z" />
    <glyph glyph-name="icon" unicode="&#xe602;" 
d="M62 749h899v-898h-899v898zM127 686h767v-768h-767v768zM260 561h497v-497h-497v497z" />
    <glyph glyph-name="icon1" unicode="&#xe61c;" 
d="M656 67q-7 -31 -72 -125q31 -8 33 -8q10 -2 30 -5t30 -5q8 -2 14 6q56 84 100 191q2 5 30 80q0 2 3 9q27 -10 65 -23q-11 -32 -12 -33q-54 -151 -129 -262q-3 -4 -7.5 -10.5t-7.5 -9.5q-14 -22 -43 -19q-104 10 -204 47q-187 71 -304 214q-16 19 -7 39t33 20q90 1 180 35
q89 34 137 91q2 2 30 41q36 -21 60 -34q-31 -44 -33 -47q-39 -49 -104 -85q-82 -46 -193 -64l-6 -1q26 -23 27 -24q27 -22 51 -40q6 -4 14 -3q57 13 93 47q-4 -20 -55 -77q54 -27 57 -29q30 -17 69 0q47 20 105 69q1 1 16 15zM910 245l-329 146q14 31 43 48q48 29 100 6
q80 -35 131 -58q38 -18 54.5 -54t4.5 -75q0 -1 -4 -13zM861 436q-71 32 -103 46l-2 2l4 7q61 116 128 241q10 18 31 15q22 -3 35 -19q9 -11 4 -25q-11 -31 -95 -263zM340 351q-1 -35 -27 -60.5t-61 -24.5q-35 2 -60 27.5t-24 60.5q0 35 26 60.5t61 24.5t60.5 -27t24.5 -61z
M116 611q21 0 36.5 -15t14.5 -37q0 -21 -15 -36t-36 -15t-36.5 15.5t-15.5 36.5t15.5 36t36.5 15zM237 542.5q0 14.5 10 24.5t24.5 10t24.5 -10.5t10 -24.5q-1 -14 -11 -24t-24 -10t-24 10t-10 24.5z" />
    <glyph glyph-name="shuju" unicode="&#xe600;" 
d="M651 13q0 8 -5 14t-12 6h-242q-7 0 -12.5 -6t-5.5 -14v-78h-173v-58h623v58h-173v78v0v0zM902 722h-778q-24 0 -41.5 -17t-17.5 -41v-545q0 -24 17.5 -41t41.5 -17h778q24 0 41 17t17 41v545q0 24 -17 41t-41 17v0v0zM902 139q0 -8 -5.5 -14t-13.5 -6h-740q-8 0 -13.5 6
t-5.5 14v506q0 8 5.5 13.5t13.5 5.5h740q8 0 13.5 -5.5t5.5 -13.5v-506v0v0zM703 176h105v306h-105v-306v0v0zM534 176h106v401h-106v-401v0v0zM219 176h105v118h-105v-118v0v0zM366 176h105v212h-105v-212v0v0zM366 176z" />
    <glyph glyph-name="msnui-pc" unicode="&#xe696;" horiz-adv-x="1025" 
d="M898 786h-772q-26 0 -45 -19t-19 -46v-514q0 -27 19 -45.5t45 -18.5h322v-97h-161q-13 0 -22.5 -9.5t-9.5 -22.5v-32h515v32q0 13 -9.5 22.5t-23.5 9.5h-160v97h321q27 0 46 18.5t19 45.5v514q0 27 -19 46t-46 19zM480 207q0 13 9.5 22.5t23 9.5t22.5 -9.5t9 -22.5
t-9 -22.5t-22.5 -9.5t-23 9.5t-9.5 22.5zM126 271v450h772v-450h-772z" />
    <glyph glyph-name="weibiaoti1" unicode="&#xe62e;" 
d="M860 -183h-637q-23 0 -43.5 13t-20.5 46v119h-32q-13 0 -22.5 8t-9.5 20t9.5 20.5t22.5 8.5h32v118h-32q-13 0 -22.5 8.5t-9.5 20.5t9.5 20.5t22.5 8.5h32v119h-32q-13 0 -22 8t-9 20t9 20.5t22 8.5h32v118h-35q-13 0 -22 8.5t-9 20.5t9 20.5t22 8.5h35v117q0 24 17 42.5
t49 18.5h635q39 0 67 -26t28 -63v-764q0 -36 -28 -62t-67 -26zM223 699v-2v-117h31q13 0 22 -8.5t9 -20.5t-9 -20.5t-22 -8.5h-31v-118h34q13 0 22 -8.5t9 -20.5t-9 -20t-22 -8h-34v-119h33q13 0 22 -8.5t9 -20.5t-9 -20.5t-22 -8.5h-33v-118h33q13 0 22 -8.5t9 -20.5
t-9 -20.5t-22 -8.5h-33v-118v0h509v823h-507h-2zM892 669q0 12 -9.5 21t-22.5 9h-64v-823h64q13 0 22.5 8.5t9.5 20.5v764z" />
    <glyph glyph-name="yumaoqiukongxin" unicode="&#xe60a;" 
d="M304 493h354q19 0 32.5 13.5t13.5 32.5v81q0 81 -68 136q-65 54 -155.5 54t-155.5 -54q-67 -55 -67 -136v-81q0 -19 13.5 -32.5t32.5 -13.5zM364 709q48 39 116.5 39t116.5 -39q45 -37 45 -89v-66h-323v66q0 52 45 89zM885 -139v0v0v1l-182 530q-5 16 -19 25.5t-30 9.5
h-344q-16 0 -30 -9.5t-20 -25.5l-181 -531q-4 -12 1.5 -23.5t17.5 -15.5q5 -2 10 -2h0.5h0.5h1q105 0 167 67q9 -15 18 -29q44 -65 82 -65q8 0 14 3q50 26 81 83q23 -31 50 -54.5t49 -29.5q8 -3 15 -3q11 0 21 6q1 1 3 2q47 37 60 133q20 -27 42 -49q67 -64 144 -64
q13 0 22 9t9 22q0 5 -2 10zM152 -115l164 481h7q-3 -269 -55 -382q-39 -84 -116 -99zM375 -142q-15 12 -33 41q-15 23 -25 45q4 7 7 14q58 125 60 408h67q16 -115 14 -220q-2 -111 -25 -184q-23 -75 -65 -104zM611 -44q-7 -70 -30 -99q-14 9 -31 26q-31 31 -49 67v-1
q23 80 25 196q2 106 -13 221h55q27 -117 39 -224q12 -112 4 -186zM675 58v2q-2 41 -8 89q-11 104 -36 217h16l163 -475q-42 18 -77.5 61.5t-57.5 105.5z" />
    <glyph glyph-name="lanqiu" unicode="&#xe60b;" 
d="M924 476q-34 80 -96 142t-143 96q-83 35 -174 35t-174 -35q-81 -34 -143 -96t-96 -142q-35 -83 -35 -174t35 -175q34 -80 96 -142t143 -96q83 -35 174 -35t174 35q81 34 143 96t96 142q35 84 35 175t-35 174zM895 302q0 -57 -16 -111q-74 72 -100 147q-4 13 -7 26
q62 -22 114 -58q5 -3 9 -4v0zM768 423q2 18 7 35q8 25 22 41.5t29 22.5q48 -70 63 -152q-56 33 -121 53zM790 566q-14 -8 -26 -21q-28 -28 -41 -70q-6 -19 -9 -39q-6 2 -11 2q-50 10 -106 12q-10 96 -36 165q-15 42 -36 71q77 -3 145.5 -34.5t119.5 -85.5zM453 681
q33 -22 56 -85q23 -61 33 -146q-30 -1 -60 -4q-45 -4 -94 -13q-2 8 -4 15q-24 65 -75 100q-31 21 -67 28q89 87 211 105zM197 523q44 5 81 -20.5t54 -73.5q1 -3 2 -7q-89 -20 -202 -59q14 87 65 160zM127 304q3 0 6 1q117 41 210 62q2 -68 -38.5 -137t-125.5 -121
q-52 89 -52 193v1v1zM210 63q101 63 147 147t41 168q78 15 148 17q6 -117 -14 -242.5t-66 -232.5q-77 9 -143 46.5t-113 96.5zM525 -82q63 157 75 348q4 66 1 129q59 -3 113 -15q3 -29 13 -60q32 -95 128 -181q1 -2 3 -3q-46 -95 -135 -155t-198 -63z" />
    <glyph glyph-name="biaoqian" unicode="&#xe68a;" 
d="M189 743v-886l323 306l323 -306v886h-646zM189 743z" />
    <glyph glyph-name="zichan" unicode="&#xe601;" 
d="M512 811q-104 0 -198.5 -40.5t-163 -109t-109.5 -163.5t-41 -199t41 -198.5t109.5 -163t163 -109t198.5 -40.5t198.5 40.5t163 109t109 163t40.5 198.5t-40.5 199t-109 163.5t-163 109t-198.5 40.5v0zM512 -148q-91 0 -174 35.5t-143 95.5t-95.5 143t-35.5 173.5
t35.5 173.5t95.5 143t143 95.5t174 35.5t173.5 -35.5t142.5 -95.5t95.5 -143t35.5 -173.5t-35.5 -173.5t-95.5 -143t-142.5 -95.5t-173.5 -35.5v0zM710 174q14 0 24.5 -8t10.5 -20q0 -11 -10.5 -19t-24.5 -8h-170v-95q0 -11 -10 -19t-25 -8t-25 8t-10 19v95h-170
q-14 0 -23.5 8.5t-9.5 19.5t9.5 19t23.5 8h170v82h-170q-14 0 -23.5 8t-9.5 20q0 11 9.5 18.5t23.5 7.5h144l-148 218q-8 9 -3 19.5t19 16.5q12 4 25.5 1t19.5 -12l150 -219l148 220q7 9 20.5 12.5t26.5 -2.5q13 -5 17 -15.5t-2 -19.5v1l-149 -220h142q14 0 24.5 -8
t10.5 -19.5t-10.5 -19t-24.5 -7.5h-170v-82h170v0zM710 174z" />
    <glyph glyph-name="jiangbei" unicode="&#xe608;" 
d="M669 -64q-3 11 -12.5 18t-20.5 7h-74v126q-29 -5 -57.5 -5t-57.5 5v-126h-73q-12 0 -21.5 -7t-12.5 -18l-26 -94q-5 -17 5.5 -31t28.5 -14h314v0q14 0 24.5 10.5t10.5 24.5q0 7 -3 14l-25 90v0zM857 683q-14 4 -29 4q-6 0 -13 -1v93q0 14 -9.5 23.5t-23.5 9.5h-555
q-14 0 -23.5 -9.5t-9.5 -23.5v-93q-7 1 -13 1q-15 0 -29 -4q-57 -15 -83.5 -78t-7.5 -137q17 -64 61.5 -104.5t95.5 -40.5h10q3 -7 8 -16l1 -2q6 -12 13 -22q1 -2 2 -3q7 -11 15 -21v-1q17 -21 37 -39v-0.5v-0.5q9 -8 20 -17q1 0 1 -0.5v-0.5q44 -33 96 -49v0q13 -4 26 -7v0
q14 -3 28 -4h1q15 -2 28.5 -2t28.5 2h1q13 1 28 4v0v0q13 3 26 7h1q51 16 95 49l0.5 0.5l0.5 0.5q10 8 20 17v1q20 18 37 39v1q8 10 15 21q2 2 2 3q7 10 13 22q1 1 1 2q5 8 8 16h11q50 0 94.5 40.5t61.5 104.5q19 74 -7.5 137t-83.5 78v0zM115 482q-13 51 2 94.5t49 52.5
q7 2 15 2q6 0 13 -1v-155q0 -13 2 -28v-4q1 -12 3 -26l0.5 -1.5t0.5 -2.5q2 -14 5 -26l1 -3t1 -5q-29 5 -55 34t-37 69v0zM674 546l-92 -70l33 -109q3 -8 -3 -12q-3 -2 -6.5 -2t-5.5 2l-95 66l-96 -66q-6 -4 -12 0t-3 12l33 109l-92 70q-6 4 -3.5 11.5t9.5 7.5l116 2l38 109
q2 7 9.5 7t9.5 -7l38 -109l116 -2q8 0 10 -7.5t-4 -11.5v0zM894 482q-11 -40 -36.5 -69t-55.5 -34q0 2 1 5l1 3q3 13 5 26q1 1 1 4q2 14 3 26q0 1 1 4q1 15 1 28v155q7 1 13 1q8 0 15 -2q34 -9 49.5 -52.5t1.5 -94.5v0z" />
    <glyph glyph-name="icon05" unicode="&#xe63f;" 
d="M777 169q-80 0 -136 -57l-217 98q14 34 14 70q0 40 -17 77l225 126q56 -52 131 -52q79 0 134.5 56t55.5 134.5t-55.5 134.5t-134.5 56t-135 -56t-56 -134q0 -41 17 -78l-225 -125q-56 51 -131 51q-79 0 -134.5 -55.5t-55.5 -134.5t55.5 -135t134.5 -56q80 0 136 58
l217 -99q-14 -33 -14 -70q0 -78 56 -134t135 -56t134.5 56t55.5 134.5t-55.5 134.5t-134.5 56zM777 737q48 0 81.5 -34t33.5 -81.5t-33.5 -81.5t-81.5 -34t-81.5 34t-33.5 81.5t33.5 81.5t81.5 34zM247 165q-48 0 -81.5 33.5t-33.5 81.5t33.5 81.5t81.5 33.5t81.5 -33.5
t33.5 -81.5t-33.5 -81.5t-81.5 -33.5zM777 -137q-48 0 -81.5 34t-33.5 81.5t33.5 81.5t81.5 34t81.5 -34t33.5 -81.5t-33.5 -81.5t-81.5 -34z" />
    <glyph glyph-name="fanhui" unicode="&#xe61d;" 
d="M512 -125q-116 0 -213.5 57t-154.5 154.5t-57 213t57 213.5t154.5 155t213.5 57t213.5 -57t154.5 -155t57 -213.5t-57 -213t-154.5 -154.5t-213.5 -57zM512 672q-101 0 -186.5 -50t-135.5 -135.5t-50 -186.5t50 -186.5t135.5 -135.5t186.5 -50t186.5 50t135.5 135.5
t50 186.5t-50 186.5t-135.5 135.5t-186.5 50zM698 273h-281l109 -109q8 -8 8 -19t-8 -18.5t-19 -7.5t-18 7l-151 151q-9 9 -7 23q-2 14 7 23l151 151q7 7 18 7t19 -7.5t8 -18.5t-8 -19l-109 -109h281q11 0 19 -8t8 -19t-8 -19t-19 -8z" />
    <glyph glyph-name="iconfontnv" unicode="&#xe617;" 
d="M611 -6q-110 0 -204 54.5t-148.5 148t-54.5 204t54.5 204.5t148.5 148.5t204.5 54.5t204 -54.5t148 -148.5t54.5 -204.5t-54.5 -204t-148 -148t-204.5 -54.5v0zM611 686q-118 0 -201.5 -83.5t-83.5 -201.5t83.5 -202t201.5 -84t202 84t84 202t-84 201.5t-202 83.5v0z
M315 230l86 -87l-309 -309l-86 87l309 309v0zM101 220l285 -284l-87 -86l-284 284l86 86v0zM101 220z" />
    <glyph glyph-name="xiala" unicode="&#xe630;" 
d="M512 124q-13 0 -23 9l-224 224q-9 10 -9 23t9.5 22.5t22.5 9.5t23 -9l201 -202l201 202q10 9 23 9t22.5 -9.5t9.5 -22.5t-9 -23l-224 -224q-10 -9 -23 -9z" />
    <glyph glyph-name="wangguan" unicode="&#xe607;" horiz-adv-x="1449" 
d="M462 147h458l91 357l-190 -188l-120 306l-123 -306l-193 183zM462 147zM653 655q0 -20 14 -34.5t34.5 -14.5t34.5 14.5t14 34.5t-14 34t-34.5 14t-34.5 -14t-14 -34v0zM653 655zM328 531q0 -20 14 -34.5t34.5 -14.5t34.5 14.5t14 34.5t-14 34.5t-34.5 14.5t-34.5 -14.5
t-14 -34.5v0zM328 531zM966 536q0 -20 14 -34.5t34 -14.5t34.5 14.5t14.5 34.5t-14.5 34.5t-34.5 14.5t-34 -14.5t-14 -34.5v0zM966 536z" />
    <glyph glyph-name="nan" unicode="&#xe605;" 
d="M435.5 553q-104.5 0 -178.5 -73t-74 -176t74 -176t178.5 -73t178 73t73.5 176t-73.5 176t-178 73zM959 490h-119v133l-105 -103q72 -97 72 -216q0 -100 -50 -184.5t-135.5 -133.5t-186 -49t-186 49t-135.5 133.5t-50 184t50 184t135.5 134t185.5 49.5q118 0 215 -68
l113 111h-152v118h348v-342v0z" />
    <glyph glyph-name="tubiao12" unicode="&#xe618;" 
d="M387 606h244q1 2 3 6.5t11.5 18.5t22.5 29t39 38.5t58 47.5q-11 6 -36.5 2.5t-30.5 1.5q-5 4 -9.5 17.5t-12.5 24.5t-23 13t-32.5 -8.5t-27.5 -22.5l-10 -11q-1 -1 -3.5 -3t-8.5 -4.5t-11.5 -2t-11.5 6.5t-10 18q-5 16 -16.5 26.5t-25.5 15t-23.5 6t-18.5 1.5
q-19 0 -40.5 -16t-26.5 -52q-3 -12 -14 -16.5t-22 2.5q-28 15 -67 11q5 -5 14 -14.5t17 -17.5t18 -19t18 -20.5t16 -19.5t13 -18.5t8.5 -16.5t3 -14t-4.5 -10zM852 89q1 201 0 215q-1 29 -23.5 64t-53 64.5t-61 55t-51 40.5t-21.5 15h-251q-72 -41 -139 -113.5t-76 -127.5
q0 -2 -2 -44t-5 -103t-4 -79q-1 -15 -5.5 -32t-10 -30t-11 -24t-9.5 -17t-4 -5q4 -3 12 -7.5t40.5 -16t73 -20.5t113 -16.5t157.5 -8.5q63 0 115 2.5t88.5 8t63 11t46 14t29.5 13t21.5 12.5t14.5 10q-12 -1 -21 11.5t-13.5 29.5t-7.5 36t-4 29.5t-1 12.5zM637 126
q-13 -84 -99 -90v-51h-56v50q-42 6 -96 24l16 67q50 -20 88 -24q66 -8 69 32q2 14 -15 26t-42.5 23t-51 23.5t-43.5 32.5t-17 46q-2 46 25.5 71t68.5 29v52h56v-50q42 0 82 -18l-15 -62q-48 18 -81 18q-61 0 -62 -27q0 -21 18.5 -33t49.5 -18.5t36 -8.5q28 -12 45 -29
q32 -31 24 -83z" />
    <glyph glyph-name="daochu" unicode="&#xe609;" 
d="M1024 404l-226 -226v169h-569v114h569v169zM570 688h-455v-569h455v114h114v-114q0 -47 -33.5 -80t-80.5 -33h-455q-47 0 -80.5 33t-33.5 80v569q0 47 33.5 80.5t80.5 33.5h455q47 0 80.5 -33.5t33.5 -80.5v-113h-114v113z" />
    <glyph glyph-name="02dingwei" unicode="&#xe615;" 
d="M512 835q-94 0 -173.5 -44.5t-126 -121t-46.5 -166.5q0 -93 51 -173l271 -380q9 -13 24 -13t24 13l272 381q50 79 50 172q0 90 -46.5 166.5t-126 121t-173.5 44.5v0zM512 317q-72 0 -122.5 50.5t-50.5 122t50.5 122.5t122.5 51t122.5 -51t50.5 -122.5t-50.5 -122
t-122.5 -50.5v0zM512 317z" />
    <glyph glyph-name="zhuyi" unicode="&#xe606;" 
d="M722 325zM514 290q-19 0 -32 13.5t-13 32.5l-1 282q0 19 13.5 32.5t32.5 13.5t32.5 -13.5t13.5 -32.5v-282q0 -19 -13.5 -32.5t-32.5 -13.5zM563 150q0 -21 -14.5 -35.5t-35 -14.5t-35 14.5t-14.5 35.5v1q0 21 14.5 35.5t35 14.5t35 -14.5t14.5 -35.5v-1zM514 -127
q-159 0 -291 93q-34 18 -34 44l-1 4q0 20 14 33.5t33 13.5q14 0 33 -15q110 -80 246 -80q113 0 209 55.5t152 151.5t56 209.5t-56 209.5t-152 152t-209.5 56t-209.5 -56t-151.5 -152t-55.5 -209q0 -93 40 -178q21 -31 21 -50v-5q0 -19 -13.5 -32.5t-32.5 -13.5q-26 0 -44 34
q-63 114 -63 244q0 103 40.5 197.5t108.5 162.5t162.5 108.5t198 40.5t197.5 -40.5t162 -108.5t108.5 -162.5t40.5 -198t-40.5 -197.5t-108.5 -162t-162 -108.5t-198 -40.5z" />
    <glyph glyph-name="kucun" unicode="&#xe63b;" 
d="M512 384zM761 -128h-4l-2 1l-2 1h-2l-2 2l-1 1l-225 122q-8 5 -11 13q-3 -8 -12 -13l-229 -125l-3 -1l-4 -1h-2h-2l-4 1h-3l-3 2l-227 124q-9 5 -12 15h-1v4v4v301q0 18 16 25l239 113v295q0 17 17 24l244 116v-3q5 0 10 -3l218 -110q16 -6 16 -24v-293v-3q5 0 11 -2
l218 -111q16 -6 16 -24v-309h-2q-3 -10 -12 -15l-229 -125l-3 -1l-4 -1h-2h-2v0zM790 -60l175 95v243l-175 -96v-242v0zM290 -60l174 95v243l-174 -96v-242v0zM736 -58v242l-72 40v-54l-61 29v58l-41 23v-243l174 -95v0zM236 -58v242l-73 40v-54l-60 29v58l-42 23v-243
l175 -95v0zM762 229l171 93l-67 34l-172 -90l68 -37v0zM262 229l171 93l-67 34l-173 -90l69 -37v0zM129 302l170 88l-30 16l-177 -84l37 -20v0zM630 302l170 88l-31 16l-176 -84l37 -20v0zM492 368v242l-73 40v-54l-61 29v58l-41 23v-242l175 -96v0zM546 372l175 96v243
l-175 -96v-243zM517 661l171 96l-67 34l-173 -92l69 -38v0zM397 728l170 90l-41 21l-177 -86l48 -25v0z" />
    <glyph glyph-name="xuexiao" unicode="&#xe633;" 
d="M481 6zM237 119q-13 0 -22.5 9.5t-9.5 22.5v267q0 13 9.5 22.5t22.5 9.5t22.5 -9.5t9.5 -22.5v-267q0 -13 -9.5 -22.5t-22.5 -9.5zM505 18q-73 0 -159.5 30t-120.5 63q-20 19 -20 40q0 13 9.5 22.5t22.5 9.5q11 0 20 -7.5t11 -17.5q18 -22 98 -50t145 -26q68 2 147.5 29
t97.5 47q2 11 11 18t20 7q13 0 22.5 -9.5t9.5 -22.5q0 -33 -58.5 -65t-128.5 -49.5t-119 -18.5h-8zM512 244q-8 0 -15 3l-432 227q-17 8 -17 27.5t17 28.5l432 227q15 7 30 0l432 -227q17 -9 17 -28t-17 -28l-432 -227q-7 -3 -15 -3zM148 502l364 -191l364 191l-364 190z
M787 119q-13 0 -22.5 9.5t-9.5 22.5v267q0 13 9.5 22.5t22.5 9.5t22.5 -9.5t9.5 -22.5v-267q0 -13 -9.5 -22.5t-22.5 -9.5zM944.5 80q-13.5 0 -23 9.5t-9.5 22.5v390q0 13 9.5 22.5t23 9.5t22.5 -9.5t9 -22.5v-390q0 -13 -9 -22.5t-22.5 -9.5z" />
    <glyph glyph-name="zhongguoditu" unicode="&#xe670;" 
d="M953 646l-45 -20q-4 -2 -7 1l-45 35v0v0l-47 49q-2 2 -4 2l-30 2q-2 1 -4 -1l-25 -16q-2 -2 -3 -4l-18 -60q-1 -3 -3 -4l-21 -8q-3 -2 -3 -6v-21q0 -5 4 -6l42 -8q4 -1 4.5 -5t-2.5 -7l-40 -26h-1v0l-87 -73q-2 -1 -4 -1l-39 -2h-2l-38 -17q-3 -1 -5 0l-51 24q-1 1 -2 1
l-66 8q-3 0 -5 4l-9 23q-1 2 -3 3l-57 27q-3 2 -3 5l-1 12v1v26q0 2 -1 3l-24 39q-3 5 -8 2l-40 -23q0 -1 -1 -1l-9 -9q-2 -2 -5 -2l-20 3q-5 1 -6 -3l-10 -22q-2 -3 -6 -3h-26q-4 1 -6 -4l-14 -47q-1 -4 -5 -5l-69 -14v0h-1l-38 -14q-4 -2 -3 -7l2 -16l1 -1l25 -64v0
q23 -50 23 -55.5t-15 -41.5q-1 -3 1 -6l10 -13q0 -1 1 -1l82 -69l1 -1l128 -56q2 -1 4 -1l76 17q2 1 4 -1l30 -16q4 -2 3 -7l-18 -59q-1 -4 2 -6l65 -56q3 -2 7 -1l80 32q3 1 6 0l52 -32v-1h1l23 -17q1 -1 2 -1l10 -4q7 -2 8 5l1 11q1 3 3 5l132 73q2 1 3 2l46 91q1 1 1 3
l-2 72q0 2 -1 3l-28 34l-20 25q-3 4 0 8l30 37q1 1 3 2v0q3 2 3 6t-4 5l-14 4q-1 1 -2 1h-38q-3 0 -5 2l-9 13q-3 4 1 8l46 36q3 2 6.5 0.5t3.5 -5.5l-1 -8q0 -4 3 -6t6 0l19 8q1 1 2 1l90 81q2 1 2 4l4 48q1 5 6 6h9q6 0 6 6l4 59q0 4 -2.5 6t-5.5 0zM842 114l-13 -40
l17 -24l13 25l10 27l-7 19zM629 -14l-18 -12l13 -15l17 4l19 18l-6 11z" />
    <glyph glyph-name="youfanye01" unicode="&#xe656;" 
d="M512 896q-138 0 -256 -69t-187 -187t-69 -256t69 -256t187 -187t256 -69t256 69t187 187t69 256t-69 256t-187 187t-256 69zM506 131v96l115 115h-355v80h355l-115 116v96l252 -253z" />
    <glyph glyph-name="zuofanye01" unicode="&#xe657;" 
d="M0 384q0 -138 69 -256t187 -187t256 -69t256 69t187 187t69 256t-69 256t-187 187t-256 69t-256 -69t-187 -187t-69 -256zM266 384l252 253v-96l-115 -115h355v-80h-355l115 -116v-96z" />
    <glyph glyph-name="shuju1" unicode="&#xe636;" 
d="M293 384h6q46 0 81 29l220 -131q-3 -13 -3 -26q0 -53 37.5 -90.5t90.5 -37.5t90.5 37.5t37.5 90.5q0 58 -43 96l81 203h5q53 0 90.5 37.5t37.5 90.5t-37.5 90.5t-90.5 37.5t-90.5 -37.5t-37.5 -90.5q0 -58 44 -97l-81 -202h-6q-46 0 -81 -29l-220 131q3 13 3 26
q0 53 -37.5 90.5t-90.5 37.5t-90.5 -37.5t-37.5 -90.5q0 -58 43 -96l-81 -203h-5q-53 0 -90.5 -37.5t-37.5 -90.5t37.5 -90.5t90.5 -37.5t90.5 37.5t37.5 90.5q0 58 -44 97z" />
    <glyph glyph-name="zan" unicode="&#xe643;" 
d="M175 419q13 0 22.5 9.5t9.5 22t-9.5 21.5t-22.5 9v0h-65q-2 1 -5 1q-17 0 -29 -12.5t-12 -29.5v-449q0 -17 12 -29t29 -12h2h2h2h63h1h1h-1h4v0q11 2 18.5 10.5t7.5 19.5t-7.5 19.5t-18.5 9.5v1h-52l1 409h47zM942 464q-28 47 -87 49q-3 1 -6 1h-207q22 67 22 131
q0 43 -10 86l-1 3v0q-10 38 -40 61t-68 23q-44 0 -73.5 -32.5t-29.5 -81.5v-3v-6q-2 -81 -59.5 -141.5t-140.5 -70.5h-3l-1 -291v-242h15v0h4v0h514h10q24 0 51 17q26 17 40 45q4 6 6 13l80 357q2 7 1 13q3 37 -17 69zM900 404l-85 -376v0q-4 -9 -12 -15q-5 -3 -11 -4h-2h-3
h-491v416q76 35 122.5 72.5t71.5 105.5v0l2 4q5 17 9 34q6 32 5 62q-3 22 10 35q13 15 32 15q17 0 32.5 -18t15.5 -33q6 -51 6 -58q0 -33 -4 -55v0l-1 -3q-9 -47 -31 -89l-1 -3v-1q-3 -7 -3 -15q0 -27 44 -27h247h8h4v-1l6 1q17 0 27 -16q7 -12 3 -26l-1 -4v-1z" />
    <glyph glyph-name="suo" unicode="&#xe616;" 
d="M782 491h-5q-8 0 -9.5 1.5t-1.5 10.5v4v64q-2 104 -75 175q-61 59 -141.5 70.5t-153.5 -29.5q-127 -70 -132 -219q-1 -10 -1 -28.5v-28.5q0 -18 -1 -19t-18 -1q-26 -1 -42.5 -17.5t-16.5 -43.5q-1 -386 -1 -419q0 -27 18.5 -44.5t42.5 -17.5h266h268t44.5 17t16.5 45v415
q0 12 -1 17q-4 21 -20 34t-37 14zM313 562q0 65 35.5 117.5t93.5 75.5q46 19 92.5 13t85 -28.5t65 -62.5t32.5 -89q3 -4 2.5 -45t-0.5 -46q0 -6 -10 -6h-122h-71h-190q-10 0 -11.5 1.5t-1.5 10.5v59zM787 23q0 -8 -5.5 -13.5t-12.5 -5.5h-514q-7 0 -12.5 5.5t-5.5 13.5v391
q0 8 5.5 13.5t12.5 5.5h514q7 0 12.5 -5.5t5.5 -13.5v-391zM524 371q-26 2 -47 -11t-30 -36t-2.5 -48t25.5 -39q13 -9 13 -25v-56v-29.5t2 -30.5q1 -11 9.5 -18t19.5 -7q23 -1 30 24q1 5 1 13v99t14 29q37 27 29 75q-5 24 -23 41t-41 19z" />
    <glyph glyph-name="bi" unicode="&#xe60c;" 
d="M1002 642l-237 232q-20 19 -47.5 19t-47.5 -19l-592 -581q-15 -37 -38 -164.5t-37 -226.5q3 -3 8 -9.5t9.5 -11t10.5 -6.5q59 8 203 44.5t176 48.5l592 581q19 19 19 46t-19 47v0v0v0zM102 -56l-24 24l20 119l115 -113l-111 -30v0zM362 14l-74 -20l-176 173l13 80
l474 464l48 -46l-450 -442l47 -46l450 441l47 -46l-355 -349l47 -46l356 348l47 -46l-474 -465v0zM883 525l-236 233l71 70l236 -233l-71 -70v0z" />
    <glyph glyph-name="zhaofangzi" unicode="&#xe60d;" horiz-adv-x="1132" 
d="M204 751h99v-98h-99v98zM381 751h99v-98h-99v98zM559 751h98v-98h-98v98zM204 586h99v-98h-99v98zM381 586h99v-98h-99v98zM559 586h98v-98h-98v98zM204 421h99v-98h-99v98zM381 421h99v-98h-99v98zM559 421h98v-98h-98v98zM1105 -75h-40l0.5 0.5l0.5 0.5v648q0 5 -4 8.5
t-10 3.5h-252q-2 0 -4 -1v271q0 17 -11.5 28.5t-27.5 11.5h-652q-17 0 -28 -11.5t-11 -28.5v-931h-39q-11 0 -19 -7.5t-8 -18.5t8 -19t19 -8h78h652h348q11 0 19 8t8 19t-8 18.5t-19 7.5zM558 -75l1 3v215q0 5 -5 9t-11 4h-225q-6 0 -10.5 -4t-4.5 -9v-215v-2v-1h-184v918
h623v-918h-184z" />
    <glyph glyph-name="1212" unicode="&#xe60e;" horiz-adv-x="1254" 
d="M627 650h-523v-626h-52v626h-52v105h1254v-105h-575v-522h-52v522zM1149 650h52v-626h-52v626zM679 180h470v-52h-470v52zM731 598h366v-157h-366v157zM731 389h366v-157h-366v157zM836 337h156v-52h-156v52zM836 546h156v-52h-156v52z" />
    <glyph glyph-name="13" unicode="&#xe604;" horiz-adv-x="1390" 
d="M532 197l632 632q36 35 86 35t85 -35t35 -85t-35 -86l-674 -673q-11 -11 -24 -19q-8 -13 -19 -24q-35 -35 -84.5 -35t-84.5 35l-385 385q-35 35 -35 84.5t35 84.5t84.5 35t84.5 -35z" />
    <glyph glyph-name="nenglisuzhiyaoqiu" unicode="&#xe612;" 
d="M516.5 -23q-29.5 0 -45.5 24l-410 702q-15 24 -1 51q17 30 50 30h819q31 0 45 -27q15 -28 -2 -54l-410 -702q-16 -24 -45.5 -24zM495 57v317l-113 190l-261 137zM657 564l-113 -190v-316l374 636zM519 428l79 131h-151zM178 726l229 -118h225l229 118l-2 9h-679z" />
    <glyph glyph-name="futbolo" unicode="&#xe74d;" 
d="M348 430l164 119l164 -119l-62 -192h-203zM575 704q104 0 199 -40.5t163.5 -109t109 -163.5t40.5 -199t-40.5 -199t-109 -163.5t-163.5 -109t-199 -40.5t-199 40.5t-163.5 109t-109 163.5t-40.5 199t40.5 199t109 163.5t163.5 109t199 40.5zM929 -67q85 116 85 259v2
l-59 -51l-137 128l36 184l77 -6q-86 117 -222 161l30 -71l-164 -91l-164 91l30 71q-136 -44 -222 -161l77 6l35 -184l-137 -128l-58 51v-2q0 -143 85 -259l17 75l187 -23l79 -170l-66 -40q67 -22 137 -22t137 22l-66 40l79 170l186 23z" />
    <glyph glyph-name="xuexiao1" unicode="&#xe603;" 
d="M708 317v231l-179 131v67h159v86h-167h-14v-153l-181 -138v-224h-223v-379h329v146q0 32 23.5 55t56.5 23v0q34 0 58 -23.5t24 -56.5v-144h322v379h-208v0v0zM514 374q-33 0 -56.5 23t-23.5 55.5t23.5 55.5t56.5 23t56.5 -23t23.5 -55.5t-23.5 -55.5t-56.5 -23v0z" />
    <glyph glyph-name="chengshi" unicode="&#xe73c;" 
d="M869 478h-132q-15 0 -26 -11t-11 -27v-506h206v506q0 16 -11 27t-26 11v0zM831 27h-56v57h56v-57v0zM831 159h-56v56h56v-56v0zM831 309h-56v56h56v-56v0zM831 309zM643 328h-94q-15 0 -26 -11t-11 -27v-356v0h169v0v356q0 16 -11 27t-27 11v0zM625 27h-57v57h57v-57v0z
M625 159h-57v56h57v-56v0zM625 159zM456 628h-19v0v56q0 16 -11 27t-27 11h-65v84q0 12 -8.5 20t-20 8t-20 -8t-8.5 -20v-84h-65q-16 0 -27 -11t-11 -27v-56v0h-19q-15 0 -26 -11t-11 -27v-656v0h375v0v656q0 16 -11 27t-26 11v0zM268 27h-56v57h56v-57v0zM268 159h-56v56
h56v-56v0zM268 309h-56v56h56v-56v0zM268 459h-56v56h56v-56v0zM399 27h-56v57h56v-57v0zM399 159h-56v56h56v-56v0zM399 309h-56v56h56v-56v0zM399 459h-56v56h56v-56v0zM399 459z" />
    <glyph glyph-name="yqfraohanglv" unicode="&#xe6df;" 
d="M512 -126q-104 0 -199 40q-91 39 -161.5 109.5t-109.5 161.5q-40 95 -40 199t40 199q39 91 109.5 161.5t161.5 109.5q95 40 199 40t199 -40q91 -39 161.5 -109.5t109.5 -161.5q40 -95 40 -199t-40 -199q-39 -91 -109.5 -161.5t-161.5 -109.5q-95 -40 -199 -40zM512 853
q-95 0 -182 -37t-150 -100t-100 -150t-37 -182t37 -182t100 -150t150 -100t182 -37t182 37t150 100t100 150t37 182t-37 182t-100 150t-150 100t-182 37zM827 336l-140 1q-6 -2 -11 1t-6 9l-21 78l-67 -299q-1 -27 -10 -27l-23 -1q-6 -1 -11 2t-6 8l-82 404l-62 -281
q-2 -13 -7 -18.5t-11 -3.5l-22 -1q-6 -1 -11 2t-7 8l-41 118h-112q-6 0 -10 4.5t-4 9.5v17q0 6 4 10.5t10 4.5h139q15 0 18 -8l21 -67l61 317q3 9 13 9h11.5h12.5l6 1q13 3 16 -10l82 -401l60 288q3 14 15 11l24 1q5 1 10 -2t7 -8l41 -131h113q5 0 9.5 -4.5t4.5 -10.5v-16
q0 -6 -4 -10.5t-10 -4.5v0v0v0zM827 336z" />
    <glyph glyph-name="wodetouzi" unicode="&#xe611;" 
d="M944 170q-31 -37 -77 -66l-1 -1v0q-142 -92 -351 -92q-179 0 -316 70q-74 39 -119 93q5 -49 42 -94.5t103 -79.5q124 -64 290 -64q91 0 175 21t146 62v0q99 64 108 151zM867 235l-1 -1v0q-141 -92 -351 -92q-179 0 -316 71q-73 38 -119 92q5 -49 42 -94.5t103 -79.5
q124 -64 290 -64q91 0 175 21.5t146 62.5v0q99 64 108 150q-34 -38 -77 -66zM867 366h-1v0q-142 -92 -351 -92q-179 0 -316 70q-74 38 -119 93q5 -50 42 -95t103 -79q124 -64 290 -64q91 0 175 21t146 62v0q99 64 108 151q-31 -37 -77 -67zM79 591q-3 -55 34.5 -107
t111.5 -90q135 -70 314 -64t297 83v0q104 68 109 158v5v5q-1 12 -1 14q-5 49 -42 94t-103 79q-124 64 -290 64h-7h-8.5t-7.5 -1h-1q-19 0 -40 -2h-2q-19 -2 -39 -5h-1q-22 -3 -39 -7h-1q-103 -21 -175 -68v-1q-104 -67 -109 -157zM790 437q-102 -66 -255.5 -71t-268.5 55
q-75 39 -106 93.5t-12 110.5t86 100q102 66 255.5 71t268.5 -55q75 -39 106.5 -93.5t12 -110.5t-86.5 -100zM252 715q-62 -41 -80 -93t11 -103t99 -88q108 -55 251.5 -50.5t238.5 66.5q62 40 80.5 92.5t-10.5 103.5t-100 88q-108 55 -251 50.5t-239 -66.5zM378 474l-20 -13
q-9 -6 -19 0l-10 5q-7 3 -7 5t5 6l20 13q-18 9 -45 31.5t-18 28.5q1 1 5 2l51 17q5 1 8 0q1 -1 7 -9t17 -19.5t23 -19.5l86 56q-1 1 -7.5 9.5t-9 11.5t-7.5 11.5t-6 13t-1.5 13t2.5 14.5t9.5 13.5t17.5 14.5q29 19 67.5 23t63.5 -1t40 -12l22 14q9 6 19 0l10 -5q7 -3 7 -5
t-5 -6l-22 -14q18 -11 40.5 -31t12.5 -26q-3 -2 -7 -3l-45 -11q-5 -2 -8 0q-1 0 -6 8t-14 18t-19 15l-81 -53q0 -1 5 -8.5t6.5 -9.5t6 -9t5.5 -10.5t3.5 -10.5t1.5 -11t-2 -11t-5 -12t-9.5 -10.5t-14.5 -11.5q-28 -18 -63.5 -23t-61 -1t-48.5 13zM492 513q11 8 13.5 17.5
t0 14t-7.5 11.5l-76 -49q41 -12 70 6zM536 609l72 47q-42 12 -68 -5q-24 -16 -4 -42zM536 609z" />
    <glyph glyph-name="touyingyi" unicode="&#xe8d1;" horiz-adv-x="1325" 
d="M359 -43h-159q-17 0 -28.5 -12.5t-11.5 -30t11.5 -30t28.5 -12.5h159q17 0 28.5 12.5t11.5 30t-11.5 30t-28.5 12.5zM1078 -43h-160q-17 0 -28.5 -12.5t-11.5 -30t11.5 -30t28.5 -12.5h160q16 0 27.5 12.5t11.5 30t-11.5 30t-27.5 12.5zM638.5 720q-99.5 0 -169.5 -74.5
t-70 -180t70 -180t169.5 -74.5t169.5 74.5t70 180t-70 180t-169.5 74.5zM751 346q-18 -21 -51.5 -35.5t-61 -14.5t-61 14.5t-51.5 35.5q-20 20 -33.5 55t-13.5 63v2q0 70 47 119q18 21 51.5 35.5t60.5 14.5q67 0 113 -50q20 -20 33.5 -55t13.5 -63v-1q0 -71 -47 -120z
M559 465.5q0 -35.5 23 -60t56.5 -24.5t56.5 24.5t23 60t-23 60t-56.5 24.5t-56.5 -24.5t-23 -60zM1117 720h-159l-4 6l-3 2l-4 6q-2 2 -2 3l-3 4l-3 3q-1 2 -4 5l-2 2l-5 6l-2 2t-2 2.5t-2 2.5l-2 2l-5 5l-2 2l-5 5l-2 3l-5 4l-3 2l-4 4l-2 2q-3 3 -6 5l-2 2q-1 1 -3 2.5
t-3 2.5q-1 0 -1.5 0.5l-0.5 0.5q-3 2 -5 4l-1 0.5t-1 1.5q-1 1 -4 3l-2 1l-2 2q-4 2 -7 4q-1 1 -2 1l-5 4q-1 1 -2 1.5t-3 2t-4 1.5l-2 2l-6 4h-1.5t-0.5 1q-6 3 -7 3l-1 1l-7 4q-1 0 -3 1l-7 3q-1 1 -2 1q-5 3 -7 4h-1q-1 1 -3.5 2t-3.5 1l-2 1l-8 3l-0.5 0.5t-1.5 0.5
l-7 3h-1l-8 3h-0.5t-1.5 1l-8 2l-1 1q-2 0 -4.5 1t-4.5 1h-0.5h-0.5q-6 2 -8 2l-1 1q-2 0 -4.5 0.5t-4.5 1.5h-1l-9 2h-0.5h-0.5q-4 1 -8 1q-1 0 -1 0.5v0.5l-9 1h-1h-1q-4 1 -8 1h-2l-8 1h-1q-2 0 -9 1h-2h-9h-1h-9.5h-9.5h-2h-9h-1l-9 -1h-1l-9 -1h-1l-9 -1h-1l-9 -1
l-0.5 -0.5l-0.5 -0.5l-8 -1h-1.5h-0.5l-8 -2h-2l-8 -2l-2 -1q-1 0 -3.5 -0.5t-4.5 -1.5h-0.5h-0.5q-1 0 -8 -2l-2 -1l-8 -3h-0.5h-0.5l-8 -3h-1l-8 -3l-2 -1q-6 -2 -7 -3l-10 -4h-1l-7 -4q-1 0 -2 -1q-1 0 -3.5 -1.5t-3.5 -1.5l-2 -1l-7 -4q-1 -1 -2 -1q-3 -1 -6 -3l-2 -1
l-7 -4l-2 -2l-7 -4l-1 -1l-6 -4l-2 -1q-1 -1 -3 -2.5t-3 -1.5q-2 -1 -2.5 -1.5t-2.5 -2t-3 -2.5l-1.5 -1.5l-0.5 -0.5q-3 -2 -5 -4q-1 0 -1.5 -0.5l-0.5 -0.5q-3 -3 -6 -5q-1 0 -1.5 -1l-0.5 -1q-4 -3 -6 -5l-2 -2q-5 -3 -5 -4l-2 -2l-5 -4l-2 -3q-4 -3 -6 -5l-2 -2l-4 -5
q-1 -1 -3 -2l-4 -5l-2 -2l-5 -6l-2 -2l-4 -5l-2 -3l-4 -4l-2 -3l-1.5 -2t-2.5 -4l-2 -2q-3 -5 -4 -6h-159q-67 0 -113.5 -49.5t-46.5 -120.5v-339q0 -70 46.5 -119.5t113.5 -49.5h957q67 0 113.5 49.5t46.5 119.5v339q0 71 -46.5 120.5t-113.5 49.5v0zM160 126
q-33 0 -56.5 25t-23.5 60v339q0 35 23.5 60t56.5 25h113q-14 -33 -24 -82.5t-10 -86.5v0q0 -103 43 -192t117 -148h-239zM763 153q-25 -11 -61 -19t-63 -8h-1v0q-27 0 -63 8t-61 19q-24 11 -53.5 32t-47.5 41q-19 19 -39 51t-30 57q-10 26 -17.5 64t-7.5 67v0q0 70 25 132
q14 36 37 69l2 3q19 27 54 57.5t65 45.5v0q1 1 2 1l5 2l4 2q0 1 1.5 1.5t2 0.5t2 1t2.5 1l2 1q36 15 74 20h2q1 0 3 0.5l2 0.5h9q3 1 4 1h4h3h2h4q3 1 8.5 1t8.5 -1h4h5h4q1 0 2.5 -0.5l1.5 -0.5h9q1 0 5 -1h2q38 -5 74 -20l2 -1l5 -2q2 -1 3 -2l4 -2l5 -2q1 0 1.5 -0.5
l0.5 -0.5l8 -4q67 -36 111 -99l2 -3q22 -31 37 -68q10 -27 17.5 -65t7.5 -66v-1q0 -69 -25 -132q-10 -25 -30 -57t-39 -51q-18 -19 -47.5 -40.5t-53.5 -32.5v0zM1197 211q0 -35 -23.5 -60t-56.5 -25h-239q74 59 117 148t43 192v0q0 37 -10 86.5t-24 82.5h113q33 0 56.5 -25
t23.5 -60v-339v0z" />
    <glyph glyph-name="yizi" unicode="&#xe60f;" 
d="M771 -22l5 274q3 0 6.5 6t3.5 10v16q0 36 -18.5 68t-49.5 48v342q4 24 -15 44t-43 20h-290q-27 0 -47.5 -20.5t-20.5 -48.5v-337q-32 -16 -50.5 -46.5t-18.5 -69.5v-16q0 -5 3.5 -10.5t7.5 -5.5l5 -275q0 -15 16 -15h47q21 0 21 15l42 275h269l42 -275q0 -7 6.5 -11
t14.5 -4h48q16 0 16 16zM338 748q0 26 21 26h300q12 0 19.5 -7t7.5 -19v-332q-11 5 -32 5h-285q-21 0 -32 -5v332h1zM306 -6h-16l-10 253h63zM269 284q0 43 28.5 71.5t72.5 28.5h284q43 0 72 -30t29 -70h-486zM718 -6l-37 253h63l-10 -253h-16z" />
    <glyph glyph-name="guizhousheng" unicode="&#xe610;" 
d="M582 705q1 2 0.5 3t-3.5 0v-0.5v-0.5h-6q0 -5 -5 -5v-7l0.5 -2.5t0.5 -4.5q-4 0 -5 1q-1 0 -3 4q-5 0 -6 -1.5t-4 -2.5h-2q-6 -3 -1 -9q2 -1 3 -3v0q1 -1 4 -2q-3 -5 -3 -11h-6v-3q1 -1 -1 -1l-1 -1q-3 1 -3.5 2.5t-1.5 2.5v-2h-1h-3v-6l4 -2q-1 0 -3 -1t-4 -1
q-1 -6 -1 -7q3 -6 3 -7q-1 -1 -3 -2q-1 0 -1.5 -0.5t-1.5 -0.5q-1 2 -1 5l-4 1q-1 0 -5 -1q-1 4 -8 4l1 -3h-3q-1 1 -0.5 2.5t-0.5 2.5q5 2 7 4q1 2 1 10q2 0 3 2l-3 5q4 0 6 1q-2 2 -5 2l-1 4q-1 1 -1.5 1h-0.5q-2 1 -3 2q-2 2 -3 2q0 1 0.5 2.5t0.5 3.5l-4 3q-2 1 -2.5 2
t-3.5 3q-2 1 -2.5 2.5t-2.5 2.5q-1 -1 -2 -6q0 -3 6 -12h0.5t0.5 -1l3 -8h-3q1 -7 0 -8t-1 -4h-2h-1.5t0.5 -3q0 -1 1 -3q1 -1 3 -2v-2h-4l-2.5 2t-7.5 3q-2 1 -3 -3l-1 -1v0v0l-1 -6q0 -1 1 -5q-8 2 -9 4l-2 2q-2 3 -2 5q-4 -1 -7 3q-3 3 -4.5 2t-2.5 2v1l-1 1q0 1 -1 2
q-4 9 -11 5l-3 8q-6 1 -8 5q-1 1 -9 6l-4 -8v-2q-1 -2 -4 -3h-3q0 -7 2 -11l-4 -1q-1 0 -5.5 0.5t-6.5 0t-3 -1t-2 -0.5l-4 4q0 -2 -0.5 -3t-1.5 -2q-1 0 -5 1q0 -2 -2 -8q-2 -5 -7 -5q0 -3 -1 -5l-1 -2q-1 -5 5 -8v-3v-2v-11q0 -2 2 -3q0 -1 2 -3t3 -2q4 -2 7 -2v5
q2 0 3 0.5t2 0.5q1 1 1 2v0l-1 2q3 -1 3 -4q4 0 6 -3q2 -4 2 -7h3v-1l3 -1q-1 -1 -1 -3q-1 0 -1 -1q-4 -6 -2 -9.5t2 -5.5q3 0 3.5 0.5t2.5 1.5h1.5h0.5l1 1h2l4 -5q2 1 5 2l5 3q2 0 4 2t3 2t5 -1l8 -3l1 -1l3 -2v0v0l3 -4q1 -1 2 -1.5t1 -2.5q2 -2 0 -4l-2 -5q3 -2 8 -2
q0 -2 3 -5q1 -2 2 -2q0 -3 -1.5 -3.5t-1.5 -1.5v-2q-1 0 -1 -1v-2q2 -1 2.5 -1.5t1 -2t1.5 -2.5q-3 -5 -3 -7h3q0 -1 -3 -2.5l-5 -2.5q-6 -5 -9.5 -5.5t-9.5 1.5t-12 2q-1 -1 -2 -3t-6 -2t-11 -3l-1.5 1.5l-1.5 1.5q-1 0 -3 -1q-3 -1 -3 -2l-2 -2t-3 -2q0 -1 -8.5 1t-9.5 -3
l-1 -3h-9q0 -3 -4 -3q0 4 -1.5 5.5t-1.5 4.5q-5 0 -8.5 4t-7.5 4l-16 -2q-4 -1 -8 -5q-3 -2 -3.5 -4.5t-0.5 -5t-1 -5.5v-1q-1 -8 -9 -9q2 -2 -1 -6q3 0 4 -2l1 -4l-3 -1.5t-1 -3.5t-1 -5l-0.5 -2t-1.5 -3q0 -1 -1.5 -2.5t-1.5 -3.5l-3 4v0v0q-5 3 -9 3q-6 0 -9 -2h-1v0v-1
q-2 0 -4 -2.5t-5 -3.5q-1 0 -8 -5l-4 -4q-3 -3 -7 -2q0 2 1 6q-5 3 -7 4l-2 -4q-2 -3 -5 -4q2 4 -0.5 4.5t-9.5 0.5q-1 -4 -4 -3q-1 1 -2 1q-2 0 -3 -1.5t-3 -1.5q-7 4 -10 3q-1 2 -2 2.5t-1 2.5q-1 3 0 7q-2 0 -3 1l-6 2q-2 1 -6.5 4.5t-6 3.5t-5.5 -3q-1 -1 -1 -5
q-2 -2 -3 -1q-1 0 -1 -1t-1 -2.5t-4 -5.5q-4 -3 -3 -5.5t0.5 -3.5t-5.5 -1v0v-1l-6 -4l-3 3q-2 2 -2.5 4.5t-1.5 2.5q-2 2 -3 1.5t-2 -0.5q-3 1 -8 6q-2 1 -3 5v1q0 1 -0.5 1.5t-0.5 2.5q-4 -3 -12 2q0 -4 -2 -8l-1 -2q-1 -1 -1 -2.5v-2.5t-1.5 -2.5t-2.5 -4.5l-1 -2
q-1 -2 -4 -2v-3q-3 0 -4.5 -1t-2.5 -3t-3 -3v-0.5t-1 -0.5v0q-1 0 -5 -7q-2 -3 -3 -3v0v-4q-2 0 -5 -0.5t-3.5 -1t-2 -1.5t-2.5 -3q3 -1 6 -1v-3h-5h-4q1 -5 5 -7l-1 -2l-1 -2q7 2 8 7h5q0 -1 1 -3l1 -2q4 -5 4 -9l4 -2q0 -4 -1 -4.5t-1 -2.5l1 -2t1 -5q-4 -1 -8 -1
q0 -1 -0.5 -2l-0.5 -1l-1 -2l-1 -1q-1 -3 1 -7q1 -1 1.5 -3.5t1 -3t2 -1.5t4.5 0q0 -2 -1 -4.5t-1 -3.5q0 -7 -1 -9q2 -4 2 -9q3 0 5 -1q2 -2 2 -6q3 0 6.5 -2t10.5 -1q2 0 6.5 0.5t8 0.5t5.5 1q1 2 0.5 3.5t-0.5 2.5t0.5 1.5t2 2.5t3.5 5q3 4 3 5q4 0 7 -1l10 -3q4 0 5 1
q3 0 3.5 -0.5t2.5 -0.5h7q1 3 3 5.5t2 4.5q1 2 0 3q0 1 1 1t1.5 0.5t1 -0.5t1.5 -2l3 -5q1 -2 1.5 -3.5t0 -2t-0.5 -2.5v-4q5 -1 6 -1h9q1 -2 3 -4q-1 -1 -1.5 -2.5t-0.5 -3.5q4 -1 7 -4t2.5 -5t-0.5 -4l5 -2v-4l-1 -1q1 -2 3 -3v-3q-2 0 -3 -1v-2l-1 -2q-1 0 -4.5 -1
t-5.5 -4q-6 -9 -6 -10q1 -1 1 -2v-1l-1 -3l-1 -3l-2 -4q-1 -3 0 -5.5t1 -3.5q0 -2 -3 -4l-2 -2q-3 1 -3 2t-3 0q1 -5 1 -6v-2q1 -5 -1 -10q-2 -4 -2 -7q-1 -1 -2 -1q-2 -1 -2 -5q2 0 3 -1l1 -1q0 -2 -1 -2.5t-1 -2.5l1 -4l-2 -1h-1v-1l-1 -1q-2 -3 -2.5 -6t-2.5 -5
q-1 0 -4 2q-1 1 -2 1q-1 -1 -1.5 -6t-1.5 -7l-1 -3l1 -3v0v-1l2 -3l1 -1q1 -1 3 -1.5t2 -3.5q1 0 2 0.5t3 0.5q3 0 4 -4l1 -9h-3l3 -5q2 0 2 1q0 2 1 3q5 0 7 1q4 3 7 3q0 -6 -0.5 -9.5t-0.5 -6.5t0.5 -3.5t2 0t3.5 -1.5l1 -2l4 -2q2 -1 3 -2t0.5 -2.5t0.5 -3.5l-1 -4
q1 -1 2.5 -1t4 0.5l2.5 0.5l1 -2q1 0 2 -3l8 2q0 -2 2 -4q4 0 5 -1v-1l-3 -2q1 -2 1 -3v-2v-1v-2v0q3 -1 0 -1q-2 0 -4 3.5t-6 3.5q-3 -1 -2 -4q1 -4 -3 -8q-2 -3 -3 -6t-1 -4q-1 -1 -4 -1.5t-6 -0.5v-1q3 0 5.5 0.5t3.5 0.5q1 -2 2.5 -3t2 -2.5t0.5 -5.5q-2 -1 -3 -2
q-2 -1 -4.5 -7t-4.5 -7q-4 -2 -8 -8l-2.5 -2.5t-1.5 -2.5v-7q0 -3 -1 -4t-1 -4q2 0 9 -3q3 -2 5 -8h10q0 -1 1 -3q0 -3 6 -3l3 5q2 1 3 2q2 1 5 1.5t4.5 1.5t3.5 6q1 3 3.5 4.5t7 2t6.5 1.5l6 2l2 10q1 5 5 10v0.5v0.5l5 5q3 2 6 3t7 6q1 -1 3.5 -3t5.5 -2q-1 -2 1 -7
q8 0 12 2q3 2 8 -1q5 -1 6 -2t0.5 -2.5t1.5 -6.5l3 -4q2 -1 2 -2.5t1 -2.5q5 -2 8.5 -1.5t4 1.5t2.5 -1l2 -2l0.5 -1l0.5 -1q12 0 15 -4l6 -4.5t3.5 -2.5t3.5 -0.5t2.5 0.5t3 1.5l2.5 1.5h11q0 -1 1 -4t2 -4.5t3.5 -3.5t5.5 -2l3 7l1 1l5 2.5t4 2.5q4 3 4 6q4 0 5 2q1 0 1 2
l1 3q3 8 1 13q0 2 -2 4q-1 1 -1 2q-1 1 -2.5 3t-1.5 4q1 0 3 -0.5t4 -0.5q2 4 3 5q6 -3 15 0q17 5 18 7h1v0q1 1 4 2t4 1q1 1 3 3.5t10 2.5q1 2 1 3.5t3 1.5q3 2 3 5t6 4q2 1 3 0q0 -1 3 -2q7 2 8 2q2 -1 8 1q3 1 4.5 0.5t3 0t1.5 1.5q1 1 1 2.5v2.5t1 1.5t1 2.5q4 0 6 -1
t5 -1q0 1 0.5 3t1.5 3v0l2 1q-1 10 -1 12q-2 2 -4 3h-1q1 2 -1 7l-0.5 1.5t-0.5 2.5q1 0 1.5 1t3.5 1q1 7 7 9q2 0 4 1v7.5t9 0.5q5 1 8 5l3 3l2 -2v-1q2 -2 0 -5l8 -5q2 -1 3 -2.5t4 -1.5l-1 -2v-1v0q0 -1 1 -1v-1q0 -1 1 -2q0 -5 -5 -5q1 -2 1 -3t2 -1h1q3 0 3.5 -1
t2.5 -1v2h3q1 -2 4 -3v-3q-2 0 -2 -4q2 -1 2.5 -4.5t4.5 -6.5q3 2 4 2q0 -1 -1 -4.5t0 -5.5v-1v0q1 -1 4 -1q3 -1 4 0l2 2q5 4 8 4q2 0 3 4q0 2 1 2q2 5 7 5q-1 -2 0 -2v0h-3l2 -10q1 -2 4 -3.5t0 -5.5q1 0 2.5 2t2.5 3q5 2 5 -2v-3t1 -1l0.5 -0.5t0.5 -1.5l3 -4l-1 -1h-0.5
h-0.5l-2 -3h6l1 1q2 0 2 -0.5t1 -0.5q3 0 5 1l0.5 0.5l0.5 0.5q1 1 4 2t4 2l8 3q7 3 8 3q8 -1 11 2t3 6q1 0 1 0.5v0.5v2v2t0.5 2t1 3t0.5 3q0 2 -0.5 2t-0.5 3v6q6 1 6 3q0 1 -2 2.5t-3 2.5q2 0 2.5 0.5l1.5 1.5h2.5t2.5 -1t1 -3q0 -1 2 -1h2q0 3 -2 3.5t1 2.5q2 2 8 3
q-1 3 1 6l2 3h4q0 -3 2 -4q1 -1 2.5 -1.5t1.5 -1.5q2 -1 2.5 -2.5t1 -3.5t1.5 -3q1 0 3 2q5 3 9 -3h1v0q1 -1 3.5 -2.5t3.5 -3t0 -4.5h4v-3t0.5 -2.5l1.5 -1.5t2 -3h2v3v2l-1 9q-1 1 -4 3q0 3 1 8q1 2 1.5 2h0.5q1 -1 2 -1q0 2 -2 4h-0.5h-0.5q2 0 4 3t5 3q1 0 1.5 -0.5
t1.5 -0.5q0 2 -1.5 3t-2.5 3q1 3 2.5 4t1.5 6q2 0 5 1l6 2q0 -2 2.5 -5t2.5 -5q-2 -1 -3 -3q3 -4 5 -5q2 1 2 1.5t2 1.5q3 1 6 0v0v0l2 -1q2 0 4.5 1t4.5 1l1 -1q2 -2 5 -3q1 0 2 -1q2 -1 4 0t5 2h2v3q-2 0 -6 2v6.5t-0.5 4.5t0.5 3l4 6v6q-2 1 -3 3h-1q-1 -2 -2 -3l-2 1
q-4 1 -5 -2q-1 -1 -1 -2l-2 -2q-3 -2 -9 -2v3t-1 3q2 0 4.5 1t5.5 1l4 4q1 1 1 2q-1 1 2 2l0.5 0.5t2.5 1.5l7 -3q1 2 3 5q6 0 6 -2l-1 -6l2 -2l7 4l-2 2q-1 2 -2 3q2 0 6 -2l-1 -4l1 -4q3 0 6 -2q5 -4 9 -1l0.5 1t3.5 1q0 5 -4 6v1q4 1 4 9q3 1 6 4t3 8q7 0 6 7q0 2 -2 2
q1 2 4 4.5t5 4.5q-1 4 -4 7q-1 1 -1 6h7q0 2 0.5 3t1.5 2q-4 4 -5 4q-2 1 -1.5 3t-2.5 3l3 3q-2 2 -2.5 3.5t-2.5 2.5q1 1 2 4t2 4l0.5 0.5l1.5 1.5l-2 2q-2 0 -3 -2l-2 -3q-3 0 -7 -1q-2 0 -3.5 -1t-3.5 -1l-1 2q-2 2 -7 3q0 5 -1 6q2 2 4 2q-1 4 1 6v0.5v0.5q1 2 2 4.5
t2.5 3.5t6.5 4v1h-1h-2q1 3 3 4v3v2q2 0 4 1q0 2 -2 5v0.5v0.5v0q-1 2 -1.5 4.5t-1 4t-1.5 2.5t-1 3h-8q-1 2 -1 3l-2 5h12q3 3 2 5q3 -1 5 -1v3l3 1q1 0 1 0.5t0.5 0.5t1 0.5l0.5 0.5h2t4 1v-3h3q0 6 -2 8q-2 1 -0.5 6.5t2.5 6.5q-1 0 -6 4q-1 0 -1 -1l-1 -1q-3 -4 -4 -4
q1 1 0.5 1t-0.5 1q2 6 11 8l1 -1h2q0 3 3 4q0 6 -4 6l2 2l-3 7q0 1 -1 3q-1 4 -8 4q1 2 1 3v0q0 -1 -1 0v3h2v2h-3.5h-2.5q-2 2 -2 4h-3v0h-2q-6 0 -8 -1l-6 -2q-2 -1 -5 -1v4h-3q0 -2 -1 -3.5t-2 -2.5q-2 -5 -6 -6q-2 -1 -3 -1h-7q1 5 2.5 5.5t0.5 1.5q0 1 -2 1h-1v0
q-6 -2 -8 -4h-1q-1 1 -3 1q-3 -4 -6 -6q-1 -1 -3 -2q-3 -3 -3 -4q0 -2 -1 -2h-2q0 1 -1 1q-3 -2 -5 -3q0 2 -0.5 3t-2 1.5t-2.5 2.5l-6 4q-1 1 -2 1q2 3 3 3q1 -1 3 -1q4 0 5 4q1 -1 3 -2l4 6q1 3 2 4v1v3q-1 2 0 2l-3 1q1 1 4 2.5t6 3.5l3 4l7 2q1 2 1 4q0 1 -0.5 2t-0.5 3
q2 -1 8 -1l1 3q3 5 2.5 6.5t1.5 3.5q1 1 1 2t-1 2q1 1 1 2h2v-5q1 0 4 3q4 2 4 3h2q0 -1 1 -2q1 -2 3 -2q0 -1 8 -1q1 6 -1 10q4 0 7 3l6 6v0v0q3 2 6 3h1q3 2 4 2v1q-1 4 0 4q1 1 2 3q0 1 -2 7q0 2 0.5 3t0.5 2q0 2 -3 3q-2 1 -3 1q-2 2 -8 2v1v0.5v0.5v1q0 1 -1.5 3
t-2.5 3q-1 3 0 7.5t-3 5.5q1 1 0 2v0q1 -1 2 0q-1 1 -3 1q0 9 -2 14q2 2 4 6q1 2 6 3q1 8 -6 8l-2 -3q0 -1 -0.5 -1h-0.5v0v0q-1 -1 -2 -1q1 1 1.5 6t2.5 8l1 2l1 4v0.5v0.5l1 6q1 1 2 3t1 4h1v1v0v0q1 4 4 4q-1 3 -5 1v1h-1v2q-4 0 -5 -1t-4 -1q0 2 -1.5 3.5t-2.5 3.5
q0 2 1 4t1 5q-2 1 -2 4q-1 7 1 16l-8 -3q-3 -1 -4 -1.5t-2 -3t-1 -3.5l-3 -4q-2 -8 -3 -8q2 -1 3 -2q-3 -2 -2.5 -2.5t-2.5 -5.5l-1 -2q-1 -3 -4 -3q0 -4 3 -10l-2 -1l-1 -2l-2 1l-2 1l-2 1v0v2q-4 0 -5 -3l0.5 -2.5t-1.5 -3.5q-1 0 -5 2t-6 2q1 5 -0.5 5.5t-6 -1t-5.5 -1.5
q-1 1 -2 3l-1 4q-2 0 -3 -1t-2.5 -3t-4.5 -4v4l-1 1l-4 9q6 4 7 6l1 4q0 1 0.5 3t0.5 3q-3 1 -4 1q3 5 3 8q-5 3 -7 7v2t-2 1q-1 1 -2 0l-2 -2q-1 0 -3 -0.5t-3 -1.5q0 -2 -1 -3q8 -2 8 -10q-2 -1 -5 -1v-3.5t-1 -2.5h3v0v-2q-3 -3 -7.5 -1.5t-5.5 1.5q0 2 -0.5 4t-0.5 3
t1 3q0 1 2 1.5t2 5.5q-1 0 -2 1l-1 1q-1 2 -1 7q-1 4 -0.5 5.5t4.5 1.5q-1 9 0 10l1.5 1.5t1.5 6.5q-2 0 -4 -0.5t-5 3.5v0l-6 -2q-1 0 -2 -1l-3 -2q-4 -2 -12.5 2.5t-10.5 4.5q1 4 1 10q6 2 6 11q-3 2 -5 2v6l1 6q0 1 -0.5 2.5l-0.5 1.5v1q0 6 -4 6q-3 12 -3 23q-5 0 -6 -3
q-1 -2 -1 -4t-4 -2v2q-1 1 -2.5 2t-1.5 2q-5 0 -6 -1.5t-5 -1.5q0 6 -10 6q-2 -6 -6 -8h-13q-1 -2 -1 -3q-1 -2 -6 -1q0 -4 -1 -5t-1 -4l-8 4q2 2 2 9q-3 0 -3.5 0.5t-1.5 0.5q0 1 3 15q-1 1 -3.5 3t-3.5 3t-1 2v2q-5 -1 -5 -7h-3v0v-2q-3 0 -6.5 2t-8.5 2v-3v0q-1 1 -2 0v3
t-1 3q0 1 -0.5 3.5l-0.5 2.5h-3q0 -2 -2 -3l-4 -2q-5 -3 -7 -3v4q-5 0 -10 -2q0 -1 1.5 -3.5t-0.5 -4.5q2 0 3 -2q-1 -4 -1.5 -4.5t-6.5 -0.5l1 -3q1 -3 2 -3q0 -4 -2 -6q-1 -1 -1 -6q4 0 5 -3t5 -3q0 -1 -1 -2l-1 -2h-0.5h-0.5q-1 -2 -1 -3.5t-1 -2.5l-3 -7h-7q0 -1 1 -2
q0 -1 0 -0.5t1 -1.5l-1 -1h-1v0v0l-1 -1h-1q-1 -1 -3.5 -1.5t-3.5 -1t-2 -2t-1 -4.5q-1 1 -3 1q-1 1 -3 5q0 1 2 7h-4q1 5 0 8q-6 -1 -6.5 -0.5t-2.5 1.5q-3 1 -4 0.5t-2.5 -2t-2.5 -1.5zM943 355q0 -4 1 -6q2 0 2.5 0.5t2.5 1.5l-1 1q0 1 1 1t1 2h-3h-4z" />
  </font>
</defs>
</svg>
